<?xml version="1.0" encoding="UTF-8"?>
<svg width="42px" height="57px" viewBox="0 0 42 57" version="1.1" xmlns="http://www.w3.org/2000/svg" xmlns:xlink="http://www.w3.org/1999/xlink">
    <title>logo-codegorilla</title>
    <g id="Page-1" stroke="none" stroke-width="1" fill="none" fill-rule="evenodd">
        <g id="logo-codegorilla" fill-rule="nonzero">
            <path d="M14.8380148,2.59219714 C20.0257451,-0.525974286 25.5239359,-0.0612885714 30.1743306,3.81796857 C34.9419622,7.79494 37.7692155,12.9303686 38.8607122,19.0266543 C38.9141743,19.3254971 38.9452475,19.6282757 38.970486,19.9334293 L39.0452516,20.8544543 L39.0452516,20.8544543 C40.8564523,19.8870829 41.5897253,20.2345114 41.7275872,22.27674 C41.6480581,22.9975971 41.6040492,23.6224047 41.5834355,24.1699162 L41.5701711,24.6923569 C41.5680498,24.8583785 41.5680788,25.0165061 41.5698092,25.1674345 L41.5796552,25.5993163 L41.5796552,25.5993163 L41.6076701,26.1752634 L41.6076701,26.1752634 L41.6876998,27.2566511 L41.6876998,27.2566511 L41.7022106,27.5168755 L41.7022106,27.5168755 L41.7080684,27.7630764 L41.7080684,27.7630764 L41.7025788,27.9994214 C41.6824762,28.3874317 41.6038657,28.75174 41.4106135,29.1791686 C40.6420722,30.6005814 39.6848201,31.0872155 38.7342643,31.0608888 C41.9381782,38.6018264 40.1042809,47.3239877 33.6094786,52.8867714 C31.2186069,54.9344286 28.3403339,55.9278571 25.2997747,56.4918857 C20.241222,57.4294 15.3525543,56.8045714 10.9317484,54.1852857 C6.38827796,51.4938 3.74719243,47.2741714 2.72408388,42.1349429 C1.88085191,37.9002832 2.39269903,33.9413519 4.1765061,30.2851112 L3.89948433,30.3585641 L3.89948433,30.3585641 L3.70473452,30.4033671 L3.70473452,30.4033671 L3.50388232,30.4426258 L3.50388232,30.4426258 L3.29860127,30.4744445 L3.29860127,30.4744445 L3.09056494,30.4969273 C3.02094624,30.502655 2.95114725,30.5065107 2.8814469,30.5081785 L2.67292071,30.5063023 C1.56533449,30.4579191 0.554405775,29.7685466 0.782620066,27.1439971 C0.854807566,26.3117971 0.870276316,25.4764757 0.87360074,24.6404079 L0.877264391,22.9679806 C0.879578673,22.6893114 0.883845395,22.4107352 0.891715461,22.13234 C0.900399671,21.83974 0.952504934,21.5400829 1.03609046,21.2594257 C1.26567928,20.4885686 1.90451151,20.1552543 2.67197862,20.4136543 C2.96561349,20.5124543 3.2321102,20.6905114 3.48829441,20.8207971 L3.58349791,20.2755502 L3.58349791,20.2755502 L3.75871389,19.1774879 C3.8767356,18.4446782 4.00779629,17.7137931 4.21559704,17.0055971 C6.00074507,10.9212543 9.32842599,5.90471143 14.8380148,2.59219714 Z" id="Shape-path" fill="#190F33"></path>
            <path d="M33.6610411,18.3974829 C31.8286727,17.6988257 29.9105477,17.6228257 28.0287878,17.97514 C25.8751036,18.3784829 23.765926,19.0130829 21.6328668,19.52934 C21.3864523,19.5885114 21.0879326,19.6031686 20.8550872,19.5206543 C18.2503668,18.5967114 15.5913701,17.9137971 12.8189359,17.8171686 C11.0468141,17.7558257 9.30725822,17.97134 7.75061349,18.9370829 C5.65446217,20.2372257 4.78821217,22.2555686 5.56056414,24.6007114 C5.79474178,25.3122491 6.18862635,26.106319 6.60392947,26.8802 L7.42211944,28.3706075 C7.48585272,28.4874923 7.54762007,28.601914 7.60678125,28.7133971 C5.23110691,33.2348 3.99632072,37.0744286 4.97872204,42.0073714 C5.87808059,46.5223143 8.19839309,50.2300286 12.1904161,52.5947143 C16.0744293,54.8958857 20.3698569,55.4452571 24.8145444,54.6212 C27.4865674,54.1261143 30.015301,53.2532 32.1157944,51.4536286 C38.8583931,45.6785451 40.6426938,36.4924642 35.4439031,29.2810551 L35.2012988,28.9530298 C35.1330481,28.8692102 35.070144,28.7873603 35.0130641,28.7085114 L35.2766904,28.2032317 L35.2766904,28.2032317 L35.8159343,27.2056629 C36.1728604,26.5427441 36.5141144,25.8792176 36.7765016,25.1859114 C37.9255312,22.1518829 36.6956299,19.5543114 33.6610411,18.3974829 Z" id="Shape-path" fill="#FFFFFF"></path>
            <path d="M13.7318092,19.0209 C16.2160362,19.2277286 18.599852,19.8780714 20.9424178,20.7124429 C21.2631908,20.8269857 21.6946875,20.8199286 22.0187171,20.7059286 C24.849227,19.7125 27.7193586,18.9302429 30.7528618,18.9834429 C31.9719079,19.0051571 33.1567599,19.2141571 34.2260033,19.8509286 C35.9557895,20.8807286 36.6293586,22.3801 35.9460197,24.2719571 C35.6631044,25.0553678 35.2567953,25.7948835 34.8342934,26.5276134 L34.3263795,27.4060072 C34.2427187,27.5526549 34.1601254,27.699625 34.0794572,27.8472143 C33.9296546,28.1208143 33.7038651,28.3531571 33.493273,28.6311 C39.0283717,35.4884714 38.2267105,45.0118143 31.6706743,50.6271286 C29.6988158,52.3159571 27.3258553,53.1351286 24.8188322,53.5998143 C20.6476974,54.3728429 16.6165954,53.8576714 12.9719408,51.6981857 C9.22524671,49.4789857 7.04768092,45.9992714 6.20422697,41.7622714 C5.28261513,37.1333286 6.31820724,32.9028429 9.165,29.1251 L9.2629788,28.9891042 L9.43638158,28.7331571 C8.82631579,27.7951 8.17282895,26.9069857 7.65123355,25.9472143 C7.28269737,25.2697286 6.9890625,24.5151571 6.84577303,23.7600429 C6.50220395,21.9550429 7.22190789,20.6223286 8.89741776,19.7434429 C10.4220395,18.9438143 12.0714967,18.8824714 13.7318092,19.0209 Z M21.9720395,29.0105571 C21.6550658,29.1620143 21.4330757,29.1489857 21.1052467,29.0273857 C20.2987007,28.7271857 19.4726151,28.3949571 18.6280757,28.2929 C15.6439638,27.9324429 12.5067928,29.8704429 12.1073191,33.2198714 C12.043273,33.7589286 12.0649836,34.3430429 11.8571053,34.8245571 C10.8529934,37.1534143 10.1691118,39.5544714 9.89175987,42.0798429 C9.47763158,45.8532429 11.0017105,48.7559 14.371727,50.5039 C16.5780592,51.6482429 18.9369079,52.1498429 21.6626645,52.1845857 C24.5034868,52.1210714 27.4208388,51.4723571 29.9658553,49.6098143 C31.9773355,48.1381286 33.0107566,46.1664714 33.0574342,43.6487 C33.110625,40.7753571 32.3724671,38.0876714 31.3401316,35.4472143 C31.1463651,34.9526714 31.0275,34.4000429 31.0117599,33.8702143 C30.9569408,32.0044143 30.2193257,30.4887571 28.7071875,29.4187857 C26.5676151,27.9047571 24.2869243,27.8982429 21.9720395,29.0105571 Z M27.7199013,21.3660429 L26.2592653,21.7624492 C26.0155044,21.8274715 25.7713816,21.8911667 25.5265954,21.9523286 C25.0473355,22.0723 24.8481414,22.4143 24.7428454,22.8475 C24.5116283,23.7996714 24.7618421,24.6188429 25.4983717,25.2496429 C26.233273,25.8788143 27.0832401,26.0243 27.986398,25.6318143 C28.9150658,25.2279286 29.3872697,24.4777 29.4263487,23.4940429 C29.4632566,22.5641286 28.7115296,21.2330429 27.7199013,21.3660429 Z M15.0566941,21.3492143 L14.9005969,21.4353652 L14.5545703,21.6127036 C14.3781045,21.7077714 14.2042846,21.8171571 14.0683224,21.9621 C13.4056086,22.6694429 13.3459046,23.8507 13.8452467,24.6834429 C14.3673849,25.5541857 15.4529112,26.0150714 16.4141447,25.7751286 C17.435625,25.5199857 18.2041776,24.6823571 18.2600822,23.6813286 L18.2683252,23.4430295 C18.2750028,22.728484 18.0947023,22.0345171 17.0654605,21.8312714 L16.80035,21.7762228 L16.2609953,21.6501439 L15.0566941,21.3492143 Z" id="Combined-Shape" fill="#190F33"></path>
            <path d="M19.3377928,36.0091257 C18.4796842,35.9711257 17.6617401,35.8012114 16.9935987,35.2122114 C16.3895033,34.6796686 16.1756546,33.9240114 16.4432368,33.3431543 C16.7113618,32.7633829 17.4202105,32.44364 18.2169868,32.5337543 C19.3649309,32.6624114 20.1492237,33.33664 20.7261809,34.2665543 C21.3384178,35.2534686 20.9546842,35.9298686 19.7806875,36.00804 C19.6335987,36.0178114 19.4854243,36.0091257 19.3377928,36.0091257" id="Fill-5" fill="#190F33"></path>
            <path d="M23.5839918,36.1859343 C23.1025609,35.9465343 22.4534161,35.8249343 22.1798635,35.43842 C21.798301,34.8993629 22.2433668,34.3141629 22.6276431,33.8565343 C23.3815411,32.9597343 24.2814424,32.34142 25.5341398,32.56942 C26.6261793,32.7686486 27.0810148,33.7935629 26.4785477,34.7310771 C25.8250609,35.7489343 24.768301,35.9470771 23.5839918,36.1859343" id="Fill-7" fill="#190F33"></path>
            <path d="M29.0004967,40.5544686 C29.8108421,42.2432971 29.2621086,44.1682686 27.7923059,45.3316114 C26.330102,46.4895257 24.6241974,47.0231543 22.7977993,47.1480114 C20.0856118,47.3325829 17.3821086,47.18004 14.6965164,46.7490114 C14.5543125,46.7262114 14.4180789,46.6713829 14.2395099,46.6198114 C14.2764178,46.34404 14.3095263,46.0997543 14.367602,45.6703543 C16.1310395,45.6703543 17.8874211,45.7262686 19.6389178,45.6551543 C21.4322072,45.5824114 23.2379803,45.4939257 24.9400855,44.8115543 C26.6047401,44.14384 27.8031612,43.0619257 28.2465987,41.2438971 C28.3084737,40.9914686 28.6987204,40.8193829 29.0004967,40.5544686" id="Fill-3" fill="#190F33"></path>
        </g>
    </g>
</svg>